<?xml version="1.0" standalone="no"?>
<!DOCTYPE svg PUBLIC "-//W3C//DTD SVG 20010904//EN"
 "http://www.w3.org/TR/2001/REC-SVG-20010904/DTD/svg10.dtd">
<svg version="1.0" xmlns="http://www.w3.org/2000/svg"
 width="338.000000pt" height="338.000000pt" viewBox="0 0 338.000000 338.000000"
 preserveAspectRatio="xMidYMid meet">
<metadata>
Created by potrace 1.16, written by Peter Selinger 2001-2019
</metadata>
<g transform="translate(0.000000,338.000000) scale(0.100000,-0.100000)"
fill="#000000" stroke="none">
<path d="M1425 2980 c-3 -5 -6 -136 -5 -290 l0 -280 -287 -2 -288 -3 -3 -153
c-3 -173 -2 -174 70 -149 38 13 181 53 278 77 58 15 214 52 234 56 10 2 33 8
50 13 17 6 90 19 161 31 72 11 155 24 185 30 30 5 82 12 115 15 33 4 70 8 83
10 12 2 62 7 110 10 48 4 116 11 152 16 81 11 100 11 100 1 0 -4 -62 -23 -137
-41 -370 -89 -669 -203 -915 -348 -137 -81 -137 -98 4 -94 l88 2 0 -290 c0
-270 1 -291 18 -291 105 -4 506 1 513 5 5 4 9 128 9 290 l0 285 288 2 287 3 3
237 2 237 -27 28 -28 28 -262 -3 -263 -4 -2 289 -3 288 -262 3 c-168 1 -264
-1 -268 -8z m1045 -742 c0 -35 -4 -58 -8 -53 -4 6 -88 10 -214 10 -119 0 -197
3 -185 8 18 7 285 73 362 90 44 10 45 9 45 -55z"/>
<path d="M1446 1164 c-3 -9 -6 -32 -6 -52 l0 -37 -45 3 c-25 2 -59 -1 -76 -8
-37 -16 -79 -64 -80 -93 -1 -20 -2 -19 -8 4 -22 71 -61 99 -136 99 -57 0 -96
-20 -127 -62 -19 -27 -23 -45 -22 -98 0 -36 6 -75 13 -88 21 -38 70 -62 129
-62 89 0 128 28 145 105 4 16 5 15 6 -5 1 -33 25 -66 60 -84 33 -17 237 -20
247 -4 11 17 13 362 3 381 -13 23 -94 24 -103 1z"/>
<path d="M521 1146 c-8 -9 -11 -69 -9 -192 l3 -179 50 0 50 0 5 75 c5 72 5 73
13 32 4 -24 14 -59 22 -78 13 -32 16 -34 65 -34 49 0 52 1 66 37 9 20 19 53
22 72 6 31 8 26 12 -34 l5 -70 38 -3 c65 -5 67 0 67 192 0 120 -4 176 -12 184
-13 13 -106 16 -125 4 -7 -4 -17 -30 -23 -57 -15 -71 -40 -145 -49 -145 -4 0
-17 42 -30 94 -12 51 -27 98 -34 105 -16 16 -122 14 -136 -3z"/>
<path d="M2069 678 c-5 -25 -2 -216 4 -225 18 -26 37 -1 37 49 0 27 5 58 11
69 18 34 39 5 39 -55 0 -28 5 -58 10 -66 18 -27 40 17 40 79 -1 67 -16 90 -63
98 -27 4 -37 11 -39 27 -2 11 -11 22 -20 24 -10 2 -18 2 -19 0z"/>
<path d="M736 611 c-11 -12 -19 -42 -22 -78 -6 -75 11 -95 77 -90 24 1 49 5
54 9 9 6 12 62 7 134 -3 41 -86 59 -116 25z"/>
<path d="M972 623 c-27 -11 -42 -62 -40 -130 3 -59 6 -70 27 -85 27 -18 95
-18 114 1 13 13 26 173 15 200 -5 13 -18 18 -55 19 -26 0 -54 -2 -61 -5z"/>
<path d="M1462 614 c-4 -7 -6 -46 -4 -87 3 -57 7 -77 19 -81 22 -9 24 -5 29
60 6 63 17 86 40 77 10 -4 14 -22 14 -63 0 -40 5 -61 16 -71 13 -10 17 -10 25
2 13 19 6 146 -9 161 -16 16 -121 19 -130 2z"/>
<path d="M1735 621 c-31 -13 -49 -54 -42 -101 7 -57 30 -79 73 -75 55 5 74 29
74 92 0 78 -40 110 -105 84z"/>
<path d="M2321 615 c-5 -5 -16 -24 -25 -42 -31 -61 11 -139 70 -129 16 2 32 5
36 5 4 1 14 14 22 29 21 41 12 111 -16 131 -26 18 -75 22 -87 6z"/>
<path d="M2725 620 c-31 -12 -42 -30 -49 -77 -10 -79 62 -127 124 -83 22 16
28 28 28 62 1 83 -41 124 -103 98z"/>
</g>
</svg>
